<svg width="142" height="89" viewBox="0 0 142 89" fill="none" xmlns="http://www.w3.org/2000/svg">
<path d="M132.06 23.4634C132.06 18.5937 129.367 14.4795 123.98 11.1208C118.599 7.76507 112.003 6.08721 104.193 6.08721C102.891 6.08721 101.767 5.79208 100.82 5.2018C99.8735 4.61153 99.4001 3.87368 99.4001 2.98827C99.4001 2.17664 99.8735 1.47569 100.82 0.885413C101.767 0.295138 102.891 0 104.193 0C114.606 0 123.481 2.28732 130.818 6.86195C138.154 11.4366 141.823 16.9704 141.823 23.4634C141.823 24.2751 141.349 24.976 140.403 25.5663C139.456 26.1566 138.332 26.4517 137.03 26.4517C135.61 26.4517 134.427 26.1566 133.48 25.5663C132.533 24.976 132.06 24.2751 132.06 23.4634ZM14.2 88.4306C10.295 88.4306 6.95328 87.5644 4.17481 85.8319C1.3916 84.0965 0 82.0114 0 79.5765V26.4517C0 24.0168 1.3916 21.9332 4.17481 20.2007C6.95328 18.4653 10.295 17.5976 14.2 17.5976H36.565L45.4401 11.621C46.7417 10.6618 48.3085 9.94171 50.1403 9.46064C51.9768 8.98251 53.9009 8.74345 55.9126 8.74345H85.2001C87.2118 8.74345 88.8992 9.16698 90.2624 10.014C91.6209 10.864 92.3001 11.9162 92.3001 13.1705V22.0246C96.2051 22.0246 99.5492 22.8923 102.332 24.6278C105.111 26.3602 106.5 28.4439 106.5 30.8788H134.9C136.912 30.8788 138.597 31.3023 139.955 32.1493C141.319 32.9993 142 34.0515 142 35.3058V79.5765C142 82.0114 140.611 84.0965 137.832 85.8319C135.049 87.5644 131.705 88.4306 127.8 88.4306H14.2ZM112.89 23.5741C112.89 22.0246 112.033 20.7142 110.32 19.6429C108.602 18.5745 106.5 18.0403 104.015 18.0403C102.713 18.0403 101.62 17.726 100.735 17.0973C99.8451 16.4716 99.4001 15.753 99.4001 14.9413C99.4001 14.1297 99.8735 13.4288 100.82 12.8385C101.767 12.2482 102.891 11.9531 104.193 11.9531C109.281 11.9531 113.631 13.0775 117.242 15.3265C120.849 17.5784 122.653 20.2907 122.653 23.4634C122.653 24.2751 122.179 24.976 121.233 25.5663C120.286 26.1566 119.162 26.4517 117.86 26.4517C116.558 26.4517 115.406 26.1743 114.402 25.6194C113.394 25.0675 112.89 24.3857 112.89 23.5741ZM71.0001 72.9359C79.8751 72.9359 87.42 70.9998 93.6349 67.1276C99.8451 63.2524 102.95 58.5479 102.95 53.0141C102.95 47.4803 99.8451 42.7758 93.6349 38.9006C87.42 35.0284 79.8751 33.0923 71.0001 33.0923C62.1251 33.0923 54.5801 35.0284 48.3653 38.9006C42.1551 42.7758 39.05 47.4803 39.05 53.0141C39.05 58.5479 42.1551 63.2524 48.3653 67.1276C54.5801 70.9998 62.1251 72.9359 71.0001 72.9359Z" fill="black" fill-opacity="0.57"/>
</svg>
