<svg width="28" height="28" viewBox="0 0 28 28" fill="none" xmlns="http://www.w3.org/2000/svg">
<g clip-path="url(#clip0_18_14)">
<path d="M15.5092 2.5552e-06C15.9208 2.5552e-06 16.289 0.256203 16.4276 0.639803L17.416 3.3796C17.7702 3.4678 18.074 3.556 18.3316 3.6484C18.613 3.7492 18.9756 3.9018 19.4236 4.1104L21.7252 2.8924C21.9131 2.79287 22.1282 2.75694 22.3382 2.79001C22.5482 2.82308 22.7418 2.92336 22.89 3.0758L24.9144 5.1688C25.1832 5.4474 25.2588 5.8548 25.1076 6.2104L24.0282 8.7402C24.2074 9.0692 24.3502 9.3506 24.4594 9.5858C24.577 9.842 24.7226 10.1948 24.8962 10.6498L27.412 11.7278C27.79 11.8888 28.0238 12.2668 27.9986 12.6714L27.8138 15.5764C27.8012 15.7651 27.7334 15.946 27.619 16.0966C27.5045 16.2471 27.3483 16.3608 27.1698 16.4234L24.787 17.2704C24.7184 17.5994 24.647 17.8808 24.5714 18.1188C24.4495 18.4864 24.3103 18.848 24.1542 19.2024L25.3512 21.8484C25.4357 22.0343 25.4585 22.2424 25.4161 22.4422C25.3738 22.6419 25.2686 22.8229 25.116 22.9586L22.8396 24.9914C22.6897 25.1247 22.5026 25.209 22.3035 25.233C22.1043 25.2571 21.9025 25.2196 21.7252 25.1258L19.3788 23.8826C19.0117 24.077 18.633 24.2486 18.2448 24.3964L17.22 24.78L16.31 27.3C16.2426 27.4845 16.1209 27.6444 15.961 27.7586C15.8011 27.8728 15.6105 27.9359 15.414 27.9398L12.754 28C12.5524 28.0053 12.354 27.948 12.1863 27.8359C12.0186 27.7238 11.8897 27.5625 11.8174 27.3742L10.745 24.5364C10.3791 24.4114 10.0169 24.276 9.65863 24.1304C9.36563 24.0036 9.07706 23.8668 8.79343 23.7202L6.13343 24.857C5.95816 24.9318 5.76493 24.954 5.57726 24.9209C5.3896 24.8879 5.21559 24.801 5.07643 24.6708L3.10803 22.8242C2.96148 22.6873 2.86167 22.5078 2.82273 22.3111C2.78379 22.1144 2.80768 21.9104 2.89103 21.728L4.03483 19.236C3.88271 18.9408 3.74168 18.6401 3.61203 18.3344C3.46069 17.9602 3.32062 17.5816 3.19203 17.199L0.686026 16.436C0.482327 16.3744 0.304658 16.2473 0.180612 16.0744C0.0565654 15.9015 -0.0069161 15.6925 2.61755e-05 15.4798L0.0980262 12.7904C0.105002 12.6149 0.159818 12.4447 0.256545 12.2981C0.353273 12.1516 0.488232 12.0342 0.646826 11.9588L3.27603 10.696C3.39783 10.2494 3.50423 9.9022 3.59803 9.6488C3.7301 9.31035 3.87677 8.97777 4.03763 8.652L2.89803 6.244C2.81154 6.06114 2.78528 5.85556 2.82301 5.65682C2.86075 5.45809 2.96054 5.27644 3.10803 5.138L5.07363 3.2816C5.21142 3.15164 5.38382 3.06427 5.5701 3.03C5.75639 2.99572 5.9486 3.016 6.12363 3.0884L8.78083 4.186C9.07483 3.99 9.34083 3.8318 9.58163 3.7044C9.86863 3.5518 10.2522 3.3922 10.7352 3.22L11.6592 0.642603C11.7275 0.453978 11.8524 0.291036 12.0168 0.176026C12.1811 0.0610157 12.377 -0.000456751 12.5776 2.5552e-06H15.5092ZM14.8232 1.9278H13.265L12.418 4.2994C12.3682 4.43769 12.2876 4.56285 12.1824 4.66544C12.0771 4.76803 11.9499 4.84537 11.8104 4.8916C11.2 5.0946 10.759 5.2696 10.5014 5.4054C10.2284 5.5496 9.87983 5.7694 9.46543 6.0634C9.32979 6.15859 9.17233 6.21799 9.00762 6.2361C8.84291 6.25421 8.6763 6.23044 8.52323 6.167L5.96123 5.11L4.96303 6.0536L6.00323 8.2516C6.0655 8.38238 6.09711 8.52564 6.09566 8.67047C6.0942 8.81531 6.05972 8.95791 5.99483 9.0874C5.71483 9.6488 5.52583 10.0632 5.43063 10.318C5.28464 10.7422 5.1585 11.1729 5.05263 11.6088C5.01745 11.7452 4.95286 11.8723 4.86338 11.9812C4.77389 12.09 4.66169 12.1779 4.53463 12.2388L2.02863 13.4414L1.97823 14.8134L4.24623 15.5022C4.54723 15.5932 4.78523 15.8242 4.88463 16.121C5.10863 16.793 5.28783 17.2886 5.41663 17.5994C5.58729 17.9938 5.77602 18.3802 5.98223 18.7572C6.05199 18.8869 6.0907 19.0311 6.09531 19.1783C6.09993 19.3255 6.07032 19.4718 6.00883 19.6056L4.95743 21.8988L5.95283 22.834L8.44763 21.7672C8.58201 21.7098 8.72749 21.683 8.87352 21.6888C9.01954 21.6946 9.16243 21.7329 9.29183 21.8008C9.80283 22.0696 10.1836 22.2558 10.4244 22.358C10.6694 22.4602 11.1384 22.631 11.8188 22.8634C11.9539 22.9095 12.0771 22.9849 12.1797 23.0841C12.2823 23.1833 12.3618 23.304 12.4124 23.4374L13.4036 26.0568L14.7 26.0288L15.5358 23.7132C15.5836 23.5811 15.6596 23.4609 15.7585 23.3611C15.8574 23.2612 15.9768 23.1841 16.1084 23.135L17.5602 22.5918C17.927 22.456 18.3722 22.2418 18.8916 21.9478C19.0354 21.867 19.1971 21.8237 19.362 21.8217C19.5269 21.8198 19.6896 21.8593 19.8352 21.9366L22.043 23.1056L23.2848 21.9982L22.1984 19.6C22.1426 19.4769 22.1137 19.3433 22.1134 19.2082C22.1132 19.073 22.1417 18.9393 22.197 18.816C22.4518 18.2462 22.624 17.8164 22.7108 17.542C22.7962 17.2732 22.8844 16.8854 22.9698 16.387C22.9992 16.2177 23.0732 16.0593 23.1842 15.9281C23.2952 15.797 23.4391 15.6978 23.6012 15.6408L25.9084 14.8218L26.0092 13.2258L23.7412 12.2542C23.6205 12.2028 23.5114 12.1274 23.4207 12.0326C23.33 11.9378 23.2595 11.8255 23.2134 11.7026C23.0517 11.2563 22.8752 10.8156 22.6842 10.381C22.5034 10.0026 22.3073 9.63178 22.0962 9.2694C22.0231 9.14137 21.9806 8.99815 21.9721 8.85096C21.9636 8.70376 21.9893 8.5566 22.0472 8.421L23.0622 6.041L21.9926 4.935L19.9094 6.0382C19.7734 6.11033 19.6224 6.14955 19.4685 6.15271C19.3146 6.15588 19.1621 6.12289 19.0232 6.0564C18.5811 5.83655 18.1288 5.63754 17.668 5.46C17.2751 5.32805 16.8744 5.22051 16.4682 5.138C16.3071 5.10383 16.1572 5.02924 16.0328 4.92124C15.9084 4.81323 15.8135 4.67537 15.757 4.5206L14.8218 1.9264L14.8232 1.9278ZM14.0336 7.8974C17.4426 7.8974 20.2076 10.6316 20.2076 14.0028C20.2076 17.374 17.4426 20.1068 14.0336 20.1068C10.6232 20.1068 7.85963 17.374 7.85963 14.0028C7.85963 10.6316 10.6232 7.8988 14.0336 7.8988V7.8974ZM14.0336 9.8266C11.6998 9.8266 9.80843 11.6956 9.80843 14.0028C9.80843 16.31 11.6998 18.1804 14.0336 18.1804C16.366 18.1804 18.2574 16.31 18.2574 14.0028C18.2574 11.6956 16.3674 9.8266 14.0336 9.8266Z" fill="#001949"/>
</g>
<defs>
<clipPath id="clip0_18_14">
<rect width="28" height="28" fill="white"/>
</clipPath>
</defs>
</svg>
