<svg width="28" height="21" viewBox="0 0 28 21" fill="none" xmlns="http://www.w3.org/2000/svg">
<path d="M5.7311 2.95313C5.61507 2.8574 5.45309 2.80016 5.28079 2.79401C5.10849 2.78786 4.93999 2.83329 4.81235 2.92031C4.68472 3.00734 4.6084 3.12882 4.6002 3.25805C4.59199 3.38727 4.65257 3.51365 4.7686 3.60938L7.0436 5.49609C2.97485 7.29258 1.22485 10.1719 1.14829 10.3031C1.11011 10.3648 1.09033 10.432 1.09033 10.5C1.09033 10.568 1.11011 10.6352 1.14829 10.6969C1.19204 10.7625 2.09985 12.2801 4.13423 13.7977C6.1686 15.3152 9.25298 16.8984 13.9999 16.8984C15.9847 16.9074 17.9482 16.591 19.753 15.9715L22.2686 18.0469C22.3288 18.0982 22.4029 18.1393 22.4858 18.1676C22.5687 18.1958 22.6587 18.2106 22.7499 18.2109C22.913 18.2118 23.07 18.1647 23.1874 18.0797C23.2525 18.0375 23.3055 17.9859 23.3431 17.9278C23.3808 17.8698 23.4023 17.8067 23.4064 17.7422C23.4105 17.6777 23.3971 17.6133 23.3669 17.5529C23.3368 17.4925 23.2906 17.4372 23.2311 17.3906L5.7311 2.95313ZM11.0577 8.80195L15.9795 12.8625C15.2408 13.2079 14.3638 13.348 13.5015 13.2584C12.6392 13.1687 11.8461 12.855 11.2605 12.3719C10.6749 11.8887 10.3338 11.2668 10.2968 10.6145C10.2597 9.96212 10.529 9.3207 11.0577 8.80195ZM13.9999 15.9141C10.5655 15.9141 7.5686 14.9789 5.09673 13.1332C4.05441 12.3586 3.17322 11.471 2.48266 10.5C2.95298 9.82734 4.6811 7.6125 7.95141 6.24258L10.1608 8.06367C9.37597 8.76257 8.95594 9.65132 8.97869 10.5649C9.00144 11.4785 9.46542 12.3549 10.2845 13.0313C11.1036 13.7077 12.2221 14.1383 13.4324 14.243C14.6427 14.3477 15.8625 14.1195 16.8655 13.6008L18.8124 15.2086C17.2869 15.682 15.6507 15.9219 13.9999 15.9141ZM26.8514 10.6969C26.8077 10.7789 25.7139 12.5836 23.253 14.2406C23.1322 14.3205 22.9765 14.3643 22.8155 14.3637C22.7228 14.363 22.6314 14.3481 22.5467 14.3199C22.4621 14.2916 22.386 14.2507 22.3233 14.1996C22.2656 14.1512 22.2212 14.0948 22.1926 14.0335C22.1641 13.9722 22.1521 13.9073 22.1571 13.8424C22.1622 13.7776 22.1844 13.7142 22.2223 13.6558C22.2602 13.5975 22.3131 13.5453 22.378 13.5023C23.6494 12.6462 24.7117 11.6302 25.517 10.5C24.8265 9.52901 23.9453 8.64136 22.903 7.8668C20.4311 6.02109 17.4342 5.08594 13.9999 5.08594C13.278 5.08379 12.5571 5.1277 11.8452 5.21719C11.6801 5.22901 11.5152 5.19353 11.3836 5.1179C11.252 5.04226 11.1635 4.93208 11.1358 4.80948C11.1081 4.68688 11.1433 4.56096 11.2343 4.45703C11.3253 4.35309 11.4654 4.27885 11.6264 4.24922C12.4106 4.14984 13.2046 4.10045 13.9999 4.10156C18.7467 4.10156 21.9842 5.7832 23.8655 7.20234C25.7467 8.62149 26.8077 10.2375 26.8514 10.3031C26.8896 10.3648 26.9094 10.432 26.9094 10.5C26.9094 10.568 26.8896 10.6352 26.8514 10.6969ZM14.6999 7.76016C14.5287 7.73623 14.3772 7.66228 14.2788 7.5546C14.1803 7.44691 14.1429 7.3143 14.1749 7.18594C14.2068 7.05758 14.3053 6.94398 14.4489 6.87014C14.5925 6.7963 14.7693 6.76826 14.9405 6.79219C16.0104 6.9476 16.9846 7.35825 17.7179 7.96289C18.4511 8.56753 18.9041 9.33375 19.0092 10.1473C19.0245 10.2766 18.9709 10.4052 18.8603 10.5051C18.7497 10.6049 18.5909 10.668 18.4186 10.6805H18.353C18.1909 10.6809 18.0345 10.6356 17.915 10.5535C17.7954 10.4714 17.7214 10.3586 17.7077 10.2375C17.6301 9.63639 17.2952 9.07025 16.753 8.62372C16.2109 8.17718 15.4906 7.87423 14.6999 7.76016Z" fill="black" fill-opacity="0.36"/>
</svg>
