<svg width="25" height="25" viewBox="0 0 25 25" fill="none" xmlns="http://www.w3.org/2000/svg">
<path fill-rule="evenodd" clip-rule="evenodd" d="M16.8603 9.0909C16.8603 10.2964 16.3866 11.4526 15.5435 12.305C14.7003 13.1575 13.5567 13.6364 12.3643 13.6364C11.1719 13.6364 10.0283 13.1575 9.18513 12.305C8.34197 11.4526 7.86828 10.2964 7.86828 9.0909C7.86828 7.88537 8.34197 6.72922 9.18513 5.87678C10.0283 5.02434 11.1719 4.54545 12.3643 4.54545C13.5567 4.54545 14.7003 5.02434 15.5435 5.87678C16.3866 6.72922 16.8603 7.88537 16.8603 9.0909ZM14.6123 9.0909C14.6123 9.69367 14.3755 10.2717 13.9539 10.698C13.5323 11.1242 12.9605 11.3636 12.3643 11.3636C11.7681 11.3636 11.1963 11.1242 10.7747 10.698C10.3531 10.2717 10.1163 9.69367 10.1163 9.0909C10.1163 8.48814 10.3531 7.91006 10.7747 7.48384C11.1963 7.05762 11.7681 6.81818 12.3643 6.81818C12.9605 6.81818 13.5323 7.05762 13.9539 7.48384C14.3755 7.91006 14.6123 8.48814 14.6123 9.0909Z" fill="white"/>
<path fill-rule="evenodd" clip-rule="evenodd" d="M12.364 0C5.53572 0 0 5.59659 0 12.5C0 19.4034 5.53572 25 12.364 25C19.1924 25 24.7281 19.4034 24.7281 12.5C24.7281 5.59659 19.1924 0 12.364 0ZM2.24801 12.5C2.24801 14.875 3.04942 17.0614 4.39261 18.7977C5.33591 17.5453 6.55283 16.5304 7.94832 15.8322C9.34381 15.1339 10.8801 14.7714 12.4371 14.7727C13.974 14.7712 15.4909 15.1245 16.8724 15.8054C18.2538 16.4864 19.4632 17.4772 20.4085 18.7023C21.3824 17.4109 22.0382 15.9036 22.3215 14.3052C22.6048 12.7068 22.5075 11.0631 22.0378 9.5102C21.568 7.95731 20.7393 6.53982 19.62 5.37504C18.5008 4.21026 17.1234 3.33166 15.6016 2.81194C14.0799 2.29222 12.4576 2.14633 10.869 2.38633C9.28037 2.62633 7.77113 3.24533 6.46614 4.1921C5.16114 5.13888 4.09791 6.38621 3.3644 7.8309C2.6309 9.27559 2.24821 10.8761 2.24801 12.5ZM12.364 22.7273C10.0418 22.7308 7.78965 21.9231 5.9887 20.4409C6.7136 19.3917 7.67845 18.5351 8.80117 17.9439C9.92389 17.3528 11.1712 17.0445 12.4371 17.0454C13.6872 17.0444 14.9195 17.345 16.0316 17.9221C17.1437 18.4992 18.1036 19.3362 18.8316 20.3636C17.0166 21.894 14.7274 22.7306 12.364 22.7273Z" fill="white"/>
</svg>
