<svg width="29" height="27" viewBox="0 0 29 27" fill="none" xmlns="http://www.w3.org/2000/svg">
<path d="M4.83333 23.5084C4.16875 23.5084 3.60003 23.2893 3.12717 22.8513C2.6535 22.4124 2.41667 21.8852 2.41667 21.2695V7.83612C2.41667 7.22043 2.6535 6.69354 3.12717 6.25547C3.60003 5.81664 4.16875 5.59723 4.83333 5.59723H8.63958L10.875 3.35834H18.125V5.59723H11.9323L9.72708 7.83612H4.83333V21.2695H24.1667V8.95557H26.5833V21.2695C26.5833 21.8852 26.3469 22.4124 25.874 22.8513C25.4004 23.2893 24.8312 23.5084 24.1667 23.5084H4.83333ZM24.9521 7.83612C24.9521 6.38084 24.4083 5.14945 23.3208 4.14195C22.2333 3.13445 20.9042 2.6307 19.3333 2.6307V1.11945C21.3472 1.11945 23.059 1.77246 24.4687 3.07848C25.8785 4.3845 26.5833 5.97038 26.5833 7.83612H24.9521ZM21.75 7.83612C21.75 7.22043 21.5136 6.69354 21.0407 6.25547C20.567 5.81664 19.9979 5.59723 19.3333 5.59723V4.08598C20.441 4.08598 21.3823 4.4498 22.1572 5.17744C22.9329 5.90508 23.341 6.79131 23.3812 7.83612H21.75ZM14.5 19.5903C16.0104 19.5903 17.2945 19.1007 18.3522 18.1216C19.409 17.1417 19.9375 15.9521 19.9375 14.5528C19.9375 13.1535 19.409 11.9639 18.3522 10.984C17.2945 10.0049 16.0104 9.5153 14.5 9.5153C12.9896 9.5153 11.7055 10.0049 10.6478 10.984C9.59094 11.9639 9.0625 13.1535 9.0625 14.5528C9.0625 15.9521 9.59094 17.1417 10.6478 18.1216C11.7055 19.1007 12.9896 19.5903 14.5 19.5903ZM14.5 17.3514C13.6542 17.3514 12.9392 17.0809 12.3552 16.5398C11.7712 15.9988 11.4792 15.3364 11.4792 14.5528C11.4792 13.7692 11.7712 13.1069 12.3552 12.5658C12.9392 12.0247 13.6542 11.7542 14.5 11.7542C15.3458 11.7542 16.0608 12.0247 16.6448 12.5658C17.2288 13.1069 17.5208 13.7692 17.5208 14.5528C17.5208 15.3364 17.2288 15.9988 16.6448 16.5398C16.0608 17.0809 15.3458 17.3514 14.5 17.3514Z" fill="white"/>
</svg>
