<svg width="39" height="34" viewBox="0 0 39 34" fill="none" xmlns="http://www.w3.org/2000/svg">
<path opacity="0.5" d="M19.5 2.83333C16.2861 2.83333 13.1443 3.66419 10.472 5.22085C7.79969 6.7775 5.71689 8.99003 4.48697 11.5787C3.25704 14.1673 2.93524 17.0157 3.56225 19.7638C4.18926 22.5118 5.73692 25.0361 8.00952 27.0173C10.2821 28.9986 13.1776 30.3478 16.3298 30.8945C19.482 31.4411 22.7493 31.1605 25.7186 30.0883C28.6879 29.0161 31.2258 27.2003 33.0114 24.8706C34.797 22.5409 35.75 19.8019 35.75 17C35.75 15.1396 35.3297 13.2974 34.5131 11.5787C33.6964 9.85987 32.4994 8.29815 30.9905 6.98265C29.4815 5.66716 27.6902 4.62365 25.7186 3.91171C23.7471 3.19976 21.634 2.83333 19.5 2.83333ZM19.5 28.3333C16.9289 28.3333 14.4154 27.6686 12.2776 26.4233C10.1398 25.178 8.47351 23.408 7.48957 21.3371C6.50563 19.2662 6.24819 16.9874 6.7498 14.789C7.25141 12.5905 8.48954 10.5711 10.3076 8.98612C12.1257 7.40113 14.4421 6.32173 16.9638 5.88443C19.4856 5.44713 22.0995 5.67157 24.4749 6.52937C26.8503 7.38716 28.8807 8.83978 30.3091 10.7035C31.7376 12.5673 32.5 14.7585 32.5 17C32.5 20.0058 31.1304 22.8885 28.6924 25.0139C26.2544 27.1393 22.9478 28.3333 19.5 28.3333Z" fill="white"/>
<path d="M32.5 17H35.75C35.75 15.1396 35.3297 13.2974 34.513 11.5787C33.6964 9.85987 32.4994 8.29815 30.9905 6.98265C29.4815 5.66716 27.6901 4.62365 25.7186 3.91171C23.7471 3.19976 21.634 2.83333 19.5 2.83333V5.66667C22.9478 5.66667 26.2544 6.86071 28.6924 8.98612C31.1304 11.1115 32.5 13.9942 32.5 17Z" fill="black"/>
</svg>
