<svg width="32" height="28" viewBox="0 0 32 28" fill="none" xmlns="http://www.w3.org/2000/svg">
<path d="M5.22256 7H2.61127V23.3333C2.61127 24.6167 3.78635 25.6667 5.22256 25.6667H23.5016V23.3333H5.22256V7ZM26.1129 2.33334H10.4451C9.00892 2.33334 7.83385 3.38334 7.83385 4.66667V18.6667C7.83385 19.95 9.00892 21 10.4451 21H26.1129C27.5491 21 28.7241 19.95 28.7241 18.6667V4.66667C28.7241 3.38334 27.5491 2.33334 26.1129 2.33334ZM26.1129 18.6667H10.4451V4.66667H26.1129V18.6667ZM16.9734 17.5H19.5846V12.8333H24.8072V10.5H19.5846V5.83333H16.9734V10.5H11.7508V12.8333H16.9734V17.5Z" fill="white"/>
</svg>
